<?xml version="1.0" encoding="UTF-8" standalone="no"?><!DOCTYPE svg PUBLIC "-//W3C//DTD SVG 1.1//EN" "http://www.w3.org/Graphics/SVG/1.1/DTD/svg11.dtd"><svg width="100%" height="100%" viewBox="0 0 24 24" version="1.1" xmlns="http://www.w3.org/2000/svg" xmlns:xlink="http://www.w3.org/1999/xlink" xml:space="preserve" xmlns:serif="http://www.serif.com/" style="fill-rule:evenodd;clip-rule:evenodd;stroke-linejoin:round;stroke-miterlimit:2;"><path d="M24,2.044c0,-0.576 -0.468,-1.044 -1.044,-1.044l-21.912,-0c-0.576,-0 -1.044,0.468 -1.044,1.044l-0,20.912c-0,0.576 0.468,1.044 1.044,1.044l21.912,-0c0.576,-0 1.044,-0.468 1.044,-1.044l0,-20.912Z" style="fill:#fff;fill-opacity:0.8;"/><path d="M6.15,5c0,1.151 -0.925,2.083 -2.067,2.083c-1.141,0 -2.066,-0.932 -2.066,-2.083c-0,-1.15 0.925,-2.083 2.066,-2.083c1.142,-0 2.067,0.933 2.067,2.083Zm0.017,3.75l-4.167,-0l-0,13.333l4.167,0l-0,-13.333Zm6.651,-0l-4.14,-0l0,13.333l4.141,0l0,-6.999c0,-3.891 5.024,-4.21 5.024,0l0,6.999l4.157,0l0,-8.442c0,-6.567 -7.435,-6.328 -9.182,-3.095l0,-1.796Z" style="fill-rule:nonzero;"/></svg>