<?xml version="1.0" encoding="UTF-8" standalone="no"?><!DOCTYPE svg PUBLIC "-//W3C//DTD SVG 1.1//EN" "http://www.w3.org/Graphics/SVG/1.1/DTD/svg11.dtd"><svg width="100%" height="100%" viewBox="0 0 24 24" version="1.1" xmlns="http://www.w3.org/2000/svg" xmlns:xlink="http://www.w3.org/1999/xlink" xml:space="preserve" xmlns:serif="http://www.serif.com/" style="fill-rule:evenodd;clip-rule:evenodd;stroke-linejoin:round;stroke-miterlimit:2;"><path d="M4.98,3c0,1.381 -1.11,2.5 -2.48,2.5c-1.37,0 -2.48,-1.119 -2.48,-2.5c0,-1.38 1.11,-2.5 2.48,-2.5c1.37,0 2.48,1.12 2.48,2.5Zm0.02,4.5l-5,0l0,16l5,0l0,-16Zm7.982,0l-4.968,0l0,16l4.969,0l0,-8.399c0,-4.67 6.029,-5.052 6.029,0l0,8.399l4.988,0l0,-10.131c0,-7.88 -8.922,-7.593 -11.018,-3.714l0,-2.155Z" style="fill-rule:nonzero;"/></svg>