<?xml version="1.0" encoding="UTF-8" standalone="no"?><!DOCTYPE svg PUBLIC "-//W3C//DTD SVG 1.1//EN" "http://www.w3.org/Graphics/SVG/1.1/DTD/svg11.dtd"><svg width="100%" height="100%" viewBox="0 0 24 24" version="1.1" xmlns="http://www.w3.org/2000/svg" xmlns:xlink="http://www.w3.org/1999/xlink" xml:space="preserve" xmlns:serif="http://www.serif.com/" style="fill-rule:evenodd;clip-rule:evenodd;stroke-linejoin:round;stroke-miterlimit:2;"><path d="M6.15,5.2c0,1.151 -0.925,2.083 -2.067,2.083c-1.141,0 -2.066,-0.932 -2.066,-2.083c-0,-1.15 0.925,-2.083 2.066,-2.083c1.142,-0 2.067,0.933 2.067,2.083Zm0.017,3.75l-4.167,0l-0,13.333l4.167,0l-0,-13.333Zm6.651,-0l-4.14,-0l0,13.333l4.141,0l0,-6.999c0,-3.892 5.024,-4.21 5.024,0l0,6.999l4.157,0l0,-8.442c0,-6.567 -7.435,-6.328 -9.182,-3.095l0,-1.796Z" style="fill-rule:nonzero;"/><path d="M1.308,7.45c-0.495,-0.614 -0.791,-1.397 -0.791,-2.25c-0,-1.981 1.599,-3.583 3.566,-3.583c1.967,-0 3.567,1.602 3.567,3.583c-0,0.853 -0.296,1.636 -0.791,2.25l7.459,0l0,0.148c0.276,-0.117 0.562,-0.216 0.856,-0.297c2.161,-0.593 4.71,-0.192 6.412,1.467c1.118,1.089 1.914,2.731 1.914,5.073l0,9.942l-7.157,0c0,0 0,-8.499 0,-8.499c0,-0.97 -0.386,-1.557 -0.964,-1.539c-0.596,0.019 -1.06,0.617 -1.06,1.539l0,8.499l-13.819,0l-0,-16.333l0.808,0Zm4.859,1.5l-4.167,0l-0,13.333l4.167,0l-0,-13.333Zm6.651,-0l-4.14,-0l0,13.333l4.141,0l0,-6.999c0,-3.892 5.024,-4.21 5.024,0l0,6.999l4.157,0l0,-8.442c0,-6.567 -7.435,-6.328 -9.182,-3.095l0,-1.796Zm-6.668,-3.75c0,1.151 -0.925,2.083 -2.067,2.083c-1.141,0 -2.066,-0.932 -2.066,-2.083c-0,-1.15 0.925,-2.083 2.066,-2.083c1.142,-0 2.067,0.933 2.067,2.083Z" style="fill:#fff;fill-opacity:0.8;"/></svg>