<?xml version="1.0" encoding="UTF-8" standalone="no"?><!DOCTYPE svg PUBLIC "-//W3C//DTD SVG 1.1//EN" "http://www.w3.org/Graphics/SVG/1.1/DTD/svg11.dtd"><svg width="100%" height="100%" viewBox="0 0 22 22" version="1.1" xmlns="http://www.w3.org/2000/svg" xmlns:xlink="http://www.w3.org/1999/xlink" xml:space="preserve" xmlns:serif="http://www.serif.com/" style="fill-rule:evenodd;clip-rule:evenodd;stroke-linejoin:round;stroke-miterlimit:2;"><path d="M4.565,3.208c0,1.266 -1.018,2.292 -2.273,2.292c-1.256,0 -2.274,-1.026 -2.274,-2.292c0,-1.265 1.018,-2.291 2.274,-2.291c1.256,-0 2.273,1.026 2.273,2.291Zm0.018,4.125l-4.583,0l0,14.667l4.583,0l0,-14.667Zm7.317,0l-4.554,0l0,14.667l4.555,0l0,-7.699c0,-4.281 5.527,-4.631 5.527,-0l-0,7.699l4.572,0l0,-9.287c0,-7.223 -8.179,-6.96 -10.1,-3.404l0,-1.976Z" style="fill:#8c949e;fill-rule:nonzero;"/></svg>