<?xml version="1.0" encoding="UTF-8" standalone="no"?><!DOCTYPE svg PUBLIC "-//W3C//DTD SVG 1.1//EN" "http://www.w3.org/Graphics/SVG/1.1/DTD/svg11.dtd"><svg width="100%" height="100%" viewBox="0 0 24 24" version="1.1" xmlns="http://www.w3.org/2000/svg" xmlns:xlink="http://www.w3.org/1999/xlink" xml:space="preserve" xmlns:serif="http://www.serif.com/" style="fill-rule:evenodd;clip-rule:evenodd;stroke-linejoin:round;stroke-miterlimit:2;"><path d="M17.678,13.012l2,0l0,10l-16,0l-0,-10l2,0l-0,8l12,0l0,-8Zm-1,7l-10,0l0,-2l10,0l0,2Zm0.036,-4.728l-0.177,1.92l-9.755,-0.879l0.186,-2.016l9.746,0.975Zm0.538,-2.587l-9.276,-2.608l-0.526,1.954l9.306,2.5l0.496,-1.846Zm1.204,-2.413l-8.297,-4.864l-1.029,1.743l8.298,4.865l1.028,-1.744Zm1.866,-1.467l-1.672,1.14l-5.339,-7.829l1.672,-1.14l5.339,7.829Z"/></svg>