<?xml version="1.0" encoding="UTF-8" standalone="no"?><!DOCTYPE svg PUBLIC "-//W3C//DTD SVG 1.1//EN" "http://www.w3.org/Graphics/SVG/1.1/DTD/svg11.dtd"><svg width="100%" height="100%" viewBox="0 0 24 24" version="1.1" xmlns="http://www.w3.org/2000/svg" xmlns:xlink="http://www.w3.org/1999/xlink" xml:space="preserve" xmlns:serif="http://www.serif.com/" style="fill-rule:evenodd;clip-rule:evenodd;stroke-linejoin:round;stroke-miterlimit:2;"><path d="M24,1.089c0,-0.601 -0.488,-1.089 -1.089,-1.089l-21.822,0c-0.601,0 -1.089,0.488 -1.089,1.089l-0,21.822c-0,0.601 0.488,1.089 1.089,1.089l21.822,0c0.601,0 1.089,-0.488 1.089,-1.089l0,-21.822Z" style="fill:#fff;fill-opacity:0.8;"/><path d="M17.156,12.919l1.816,0l0,9.081l-14.53,0l0.001,-9.081l1.816,0l0,7.265l10.897,0l-0,-7.265Zm-0.908,6.357l-9.08,-0l-0,-1.817l9.08,0l0,1.817Zm0.033,-4.293l-0.161,1.743l-8.858,-0.798l0.169,-1.831l8.85,0.886Zm0.488,-2.35l-8.423,-2.368l-0.478,1.774l8.451,2.27l0.45,-1.676Zm1.094,-2.191l-7.535,-4.417l-0.934,1.583l7.535,4.418l0.934,-1.584Zm1.695,-1.333l-1.519,1.036l-4.848,-7.11l1.518,-1.035l4.849,7.109Z"/></svg>