<?xml version="1.0" encoding="UTF-8" standalone="no"?><!DOCTYPE svg PUBLIC "-//W3C//DTD SVG 1.1//EN" "http://www.w3.org/Graphics/SVG/1.1/DTD/svg11.dtd"><svg width="100%" height="100%" viewBox="0 0 22 22" version="1.1" xmlns="http://www.w3.org/2000/svg" xmlns:xlink="http://www.w3.org/1999/xlink" xml:space="preserve" xmlns:serif="http://www.serif.com/" style="fill-rule:evenodd;clip-rule:evenodd;stroke-linejoin:round;stroke-miterlimit:2;"><path d="M16.671,12.011l1.999,0l-0,9.989l-15.983,0l-0,-9.989l1.998,0l0,7.992l11.986,-0l0,-7.992Zm-0.998,6.992l-9.989,0l0,-1.998l9.989,0l0,1.998Zm0.036,-4.722l-0.177,1.917l-9.744,-0.878l0.186,-2.014l9.735,0.975Zm0.537,-2.584l-9.266,-2.606l-0.525,1.952l9.296,2.497l0.495,-1.843Zm1.203,-2.411l-8.288,-4.858l-1.027,1.74l8.288,4.86l1.027,-1.742Zm1.864,-1.466l-1.67,1.14l-5.333,-7.821l1.67,-1.139l5.333,7.82Z" style="fill:#7a838f;"/></svg>