<?xml version="1.0" encoding="UTF-8" standalone="no"?><!DOCTYPE svg PUBLIC "-//W3C//DTD SVG 1.1//EN" "http://www.w3.org/Graphics/SVG/1.1/DTD/svg11.dtd"><svg width="100%" height="100%" viewBox="0 0 24 24" version="1.1" xmlns="http://www.w3.org/2000/svg" xmlns:xlink="http://www.w3.org/1999/xlink" xml:space="preserve" xmlns:serif="http://www.serif.com/" style="fill-rule:evenodd;clip-rule:evenodd;stroke-linejoin:round;stroke-miterlimit:2;"><path d="M18.187,13.103l2.18,-0l-0,10.897l-17.436,0l0,-10.897l2.18,-0l-0,8.718l13.076,-0l0,-8.718Zm-1.089,7.628l-10.897,-0l-0,-2.18l10.897,0l-0,2.18Zm0.039,-5.152l-0.193,2.092l-10.63,-0.958l0.203,-2.197l10.62,1.063Zm0.586,-2.819l-10.108,-2.842l-0.573,2.129l10.141,2.724l0.54,-2.011Zm1.312,-2.63l-9.041,-5.3l-1.121,1.899l9.042,5.302l1.12,-1.901Zm2.034,-1.599l-1.822,1.243l-5.818,-8.532l1.822,-1.242l5.818,8.531Z"/></svg>