<?xml version="1.0" encoding="UTF-8" standalone="no"?><!DOCTYPE svg PUBLIC "-//W3C//DTD SVG 1.1//EN" "http://www.w3.org/Graphics/SVG/1.1/DTD/svg11.dtd"><svg width="100%" height="100%" viewBox="0 0 24 24" version="1.1" xmlns="http://www.w3.org/2000/svg" xmlns:xlink="http://www.w3.org/1999/xlink" xml:space="preserve" xmlns:serif="http://www.serif.com/" style="fill-rule:evenodd;clip-rule:evenodd;stroke-linejoin:round;stroke-miterlimit:2;"><path d="M17.156,13.219l1.816,0l0,9.081l-14.53,0l0.001,-9.081l1.816,0l0,7.265l10.897,0l-0,-7.265Zm-0.908,6.357l-9.08,-0l-0,-1.817l9.08,0l0,1.817Zm0.033,-4.293l-0.161,1.743l-8.858,-0.798l0.169,-1.831l8.85,0.886Zm0.488,-2.35l-8.423,-2.368l-0.478,1.774l8.451,2.27l0.45,-1.676Zm1.094,-2.191l-7.535,-4.417l-0.934,1.583l7.535,4.418l0.934,-1.584Zm1.695,-1.333l-1.519,1.036l-4.848,-7.11l1.518,-1.035l4.849,7.109Z"/><path d="M13.494,6.442l-2.388,-3.501l3.997,-2.725l6.539,9.587l-2.484,1.694l-0.13,0.222l1.445,0l-0.001,12.081l-17.53,-0l0.001,-12.081l3.539,0l0.81,-3.009l0.973,0.274l-0.927,-0.544l2.459,-4.165l3.697,2.167Zm3.662,6.777l1.816,0l0,9.081l-14.53,0l0.001,-9.081l1.816,0l0,7.265l10.897,0l-0,-7.265Zm-0.908,6.357l-9.08,-0l-0,-1.817l9.08,0l0,1.817Zm0.033,-4.293l-8.85,-0.886l-0.169,1.831l8.858,0.798l0.161,-1.743Zm0.488,-2.35l-8.423,-2.368l-0.478,1.774l8.451,2.27l0.45,-1.676Zm1.093,-2.191l-7.534,-4.417l-0.934,1.583l7.535,4.418l0.933,-1.584Zm1.695,-1.333l-1.518,1.036l-4.848,-7.11l1.518,-1.035l4.848,7.109Z" style="fill:#fff;fill-opacity:0.8;"/></svg>