<?xml version="1.0" encoding="UTF-8" standalone="no"?><!DOCTYPE svg PUBLIC "-//W3C//DTD SVG 1.1//EN" "http://www.w3.org/Graphics/SVG/1.1/DTD/svg11.dtd"><svg width="100%" height="100%" viewBox="0 0 24 24" version="1.1" xmlns="http://www.w3.org/2000/svg" xmlns:xlink="http://www.w3.org/1999/xlink" xml:space="preserve" xmlns:serif="http://www.serif.com/" style="fill-rule:evenodd;clip-rule:evenodd;stroke-linejoin:round;stroke-miterlimit:2;"><path d="M24,3.953c0,-0.526 -0.427,-0.953 -0.953,-0.953l-22.094,0c-0.526,0 -0.953,0.427 -0.953,0.953l0,19.094c0,0.526 0.427,0.953 0.953,0.953l22.094,-0c0.526,-0 0.953,-0.427 0.953,-0.953l0,-19.094Z" style="fill:#fff;fill-opacity:0.8;"/><path d="M22,7.671c-0.736,0.326 -1.527,0.546 -2.357,0.646c0.848,-0.508 1.499,-1.312 1.805,-2.27c-0.793,0.47 -1.671,0.811 -2.606,0.995c-0.748,-0.797 -1.815,-1.295 -2.995,-1.295c-2.649,-0 -4.596,2.471 -3.998,5.037c-3.409,-0.171 -6.432,-1.804 -8.456,-4.287c-1.075,1.845 -0.558,4.257 1.269,5.479c-0.672,-0.022 -1.305,-0.206 -1.858,-0.514c-0.045,1.901 1.318,3.68 3.291,4.075c-0.577,0.157 -1.21,0.194 -1.853,0.07c0.521,1.63 2.036,2.816 3.833,2.85c-1.725,1.352 -3.898,1.956 -6.075,1.7c1.816,1.164 3.973,1.843 6.29,1.843c7.618,-0 11.923,-6.434 11.663,-12.205c0.801,-0.579 1.497,-1.302 2.047,-2.124Z" style="fill-rule:nonzero;"/></svg>