<?xml version="1.0" encoding="UTF-8" standalone="no"?><!DOCTYPE svg PUBLIC "-//W3C//DTD SVG 1.1//EN" "http://www.w3.org/Graphics/SVG/1.1/DTD/svg11.dtd"><svg width="100%" height="100%" viewBox="0 0 22 22" version="1.1" xmlns="http://www.w3.org/2000/svg" xmlns:xlink="http://www.w3.org/1999/xlink" xml:space="preserve" xmlns:serif="http://www.serif.com/" style="fill-rule:evenodd;clip-rule:evenodd;stroke-linejoin:round;stroke-miterlimit:2;"><path d="M22,6.238c-0.809,0.359 -1.679,0.601 -2.592,0.71c0.932,-0.558 1.648,-1.443 1.984,-2.497c-0.872,0.517 -1.838,0.893 -2.866,1.096c-0.822,-0.878 -1.997,-1.426 -3.295,-1.426c-2.914,0 -5.055,2.719 -4.397,5.542c-3.75,-0.188 -7.076,-1.985 -9.302,-4.716c-1.183,2.029 -0.614,4.683 1.396,6.026c-0.739,-0.023 -1.436,-0.226 -2.043,-0.564c-0.05,2.091 1.449,4.047 3.619,4.482c-0.635,0.173 -1.331,0.213 -2.038,0.077c0.574,1.793 2.24,3.098 4.216,3.134c-1.897,1.488 -4.288,2.153 -6.682,1.87c1.997,1.281 4.371,2.028 6.919,2.028c8.38,0 13.115,-7.078 12.829,-13.425c0.882,-0.638 1.647,-1.432 2.252,-2.337Z" style="fill:#7a838f;fill-rule:nonzero;"/></svg>