<?xml version="1.0" encoding="UTF-8" standalone="no"?><!DOCTYPE svg PUBLIC "-//W3C//DTD SVG 1.1//EN" "http://www.w3.org/Graphics/SVG/1.1/DTD/svg11.dtd"><svg width="100%" height="100%" viewBox="0 0 24 24" version="1.1" xmlns="http://www.w3.org/2000/svg" xmlns:xlink="http://www.w3.org/1999/xlink" xml:space="preserve" xmlns:serif="http://www.serif.com/" style="fill-rule:evenodd;clip-rule:evenodd;stroke-linejoin:round;stroke-miterlimit:2;"><path d="M10.294,9.446c0.374,-2.661 2.656,-4.825 5.553,-4.825c1.277,0 2.458,0.428 3.4,1.148c0.507,-0.157 0.988,-0.372 1.435,-0.638c0.536,-0.318 1.212,-0.271 1.7,0.117c0.476,0.379 0.675,1.007 0.506,1.589c0.094,0.069 0.182,0.15 0.26,0.243c0.43,0.511 0.47,1.244 0.099,1.799c-0.5,0.748 -1.103,1.426 -1.786,2.01c-0.112,6.296 -4.919,12.986 -13.171,12.986c-2.615,-0 -5.05,-0.767 -7.1,-2.081c-0.588,-0.377 -0.838,-1.11 -0.602,-1.768c0.235,-0.658 0.894,-1.066 1.588,-0.984c0.765,0.09 1.531,0.05 2.267,-0.113c-0.748,-0.66 -1.319,-1.517 -1.63,-2.49c-0.081,-0.253 -0.092,-0.519 -0.038,-0.771c-0.954,-1.045 -1.504,-2.431 -1.47,-3.866c0.008,-0.356 0.142,-0.691 0.369,-0.951c-0.551,-1.523 -0.436,-3.261 0.423,-4.734c0.247,-0.425 0.688,-0.702 1.178,-0.74c0.491,-0.039 0.969,0.166 1.28,0.547c1.434,1.759 3.443,3.029 5.739,3.522Zm11.706,-1.4c-0.736,0.326 -1.527,0.546 -2.357,0.645c0.848,-0.507 1.499,-1.311 1.805,-2.27c-0.793,0.47 -1.671,0.812 -2.606,0.996c-0.748,-0.797 -1.815,-1.296 -2.995,-1.296c-2.649,0 -4.596,2.472 -3.998,5.038c-3.409,-0.171 -6.432,-1.804 -8.456,-4.287c-1.075,1.844 -0.558,4.257 1.269,5.479c-0.672,-0.022 -1.305,-0.206 -1.858,-0.514c-0.045,1.901 1.318,3.679 3.291,4.075c-0.577,0.157 -1.21,0.194 -1.853,0.07c0.521,1.63 2.036,2.816 3.833,2.849c-1.725,1.353 -3.898,1.957 -6.075,1.7c1.816,1.165 3.973,1.844 6.29,1.844c7.618,-0 11.923,-6.435 11.663,-12.205c0.801,-0.58 1.497,-1.302 2.047,-2.125Z" style="fill:#fff;fill-opacity:0.8;"/><path d="M22,8.045c-0.736,0.327 -1.527,0.547 -2.357,0.646c0.848,-0.507 1.499,-1.311 1.805,-2.27c-0.793,0.47 -1.671,0.812 -2.606,0.996c-0.748,-0.797 -1.815,-1.296 -2.995,-1.296c-2.649,0 -4.596,2.472 -3.998,5.038c-3.409,-0.171 -6.432,-1.804 -8.456,-4.287c-1.075,1.844 -0.558,4.257 1.269,5.478c-0.672,-0.021 -1.305,-0.205 -1.858,-0.513c-0.045,1.901 1.318,3.679 3.291,4.075c-0.577,0.157 -1.21,0.193 -1.853,0.07c0.521,1.63 2.036,2.816 3.833,2.849c-1.725,1.353 -3.898,1.957 -6.075,1.7c1.816,1.165 3.973,1.844 6.29,1.844c7.618,-0 11.923,-6.435 11.663,-12.205c0.801,-0.58 1.497,-1.302 2.047,-2.125Z" style="fill-rule:nonzero;"/></svg>